<svg width="21" height="21" viewBox="0 0 21 21" fill="none" xmlns="http://www.w3.org/2000/svg">
<g clip-path="url(#clip0)">
<path d="M20.5833 10.7411C20.5833 10.0273 20.5254 9.30973 20.402 8.60754H10.498V12.6509H16.1696C15.9342 13.955 15.178 15.1086 14.0707 15.8416V18.4652H17.4543C19.4413 16.6364 20.5833 13.9357 20.5833 10.7411Z" fill="#4285F4"/>
<path d="M10.4983 21C13.3302 21 15.7184 20.0702 17.4584 18.4652L14.0748 15.8416C13.1334 16.4821 11.9181 16.8447 10.5022 16.8447C7.76286 16.8447 5.44024 14.9967 4.60688 12.512H1.11523V15.2166C2.89771 18.7623 6.52824 21 10.4983 21Z" fill="#34A853"/>
<path d="M4.60277 12.512C4.16294 11.208 4.16294 9.79587 4.60277 8.49181V5.78723H1.11499C-0.374266 8.75416 -0.374266 12.2497 1.11499 15.2166L4.60277 12.512Z" fill="#FBBC04"/>
<path d="M10.4983 4.15522C11.9953 4.13207 13.4421 4.69536 14.5262 5.72935L17.524 2.73156C15.6258 0.949084 13.1064 -0.0308902 10.4983 -2.48392e-05C6.52824 -2.48392e-05 2.89771 2.23771 1.11523 5.78722L4.60302 8.4918C5.43252 6.00328 7.759 4.15522 10.4983 4.15522Z" fill="#EA4335"/>
</g>
<defs>
<clipPath id="clip0">
<rect width="20.5833" height="21" fill="white"/>
</clipPath>
</defs>
</svg>
