<svg width="60" height="60" viewBox="0 0 60 60" fill="none" xmlns="http://www.w3.org/2000/svg">
<rect width="60" height="60" rx="30" fill="#F5F7FA"/>
<path d="M30 19C26.9367 19 24.4444 21.4791 24.4444 24.5263C24.4444 27.5735 26.9367 30.0526 30 30.0526C33.0633 30.0526 35.5556 27.5735 35.5556 24.5263C35.5556 21.4791 33.0633 19 30 19ZM30 27.8421C28.1622 27.8421 26.6667 26.3544 26.6667 24.5263C26.6667 22.6982 28.1622 21.2105 30 21.2105C31.8378 21.2105 33.3333 22.6982 33.3333 24.5263C33.3333 26.3544 31.8378 27.8421 30 27.8421ZM40 40V38.8947C40 34.6295 36.51 31.1579 32.2222 31.1579H27.7778C23.4889 31.1579 20 34.6295 20 38.8947V40H22.2222V38.8947C22.2222 35.8475 24.7144 33.3684 27.7778 33.3684H32.2222C35.2856 33.3684 37.7778 35.8475 37.7778 38.8947V40H40Z" fill="#DCDEE0"/>
</svg>
